<svg xmlns="http://www.w3.org/2000/svg" viewBox="0 0 69.9 69.7">
	<style type="text/css">
		.st0{fill:#005491;}
		.st1{fill:none;stroke:#005491;stroke-miterlimit:10;}
		.st2{fill:none;stroke:#005491;stroke-linejoin:bevel;stroke-miterlimit:10;}
		.st3{fill:none;stroke:#005491;stroke-width:0.5;stroke-linejoin:round;stroke-miterlimit:10;}
		.st4{fill:none;stroke:#005491;stroke-width:0.5;stroke-miterlimit:10;}
	</style>
	<title>Architect-icons</title>
	<g>
		<g>
			<path class="st0" d="M34.6,68.8c-18.8,0-34-15.3-34-34c0-18.8,15.3-34,34-34c18.8,0,34,15.3,34,34C68.6,53.5,53.4,68.8,34.6,68.8
				L34.6,68.8z M34.6,2.3C16.7,2.3,2.1,16.8,2.1,34.8c0,17.9,14.6,32.5,32.5,32.5c17.9,0,32.5-14.6,32.5-32.5
				C67.1,16.8,52.5,2.3,34.6,2.3L34.6,2.3z"/>
		</g>
	</g>
	<line class="st1" x1="37.2" y1="15.9" x2="37.2" y2="53.1"/>
	<line class="st1" x1="57.7" y1="24.1" x2="57.7" y2="50.5"/>
	<line class="st1" x1="45" y1="36.6" x2="45" y2="49.7"/>
	<line class="st1" x1="12.2" y1="49.7" x2="12.2" y2="22.2"/>
	<polyline class="st1" points="12.1,30.6 37.1,26 57.6,32.1 "/>
	<polyline class="st2" points="41,53.1 41,49.6 24.5,34.2 45,36.6 57.6,34.2 37,29.1 12.5,32.4 "/>
	<polyline class="st3" points="16,33.4 35.1,52.7 41.3,53 21,33.7 12.2,33.2 "/>
	<path class="st4" d="M57.6,28.7c-8.9-3.2-20.4-6.9-20.4-6.9L12.1,27"/>
	<polyline class="st4" points="12.1,24.8 37.1,18.6 57.6,26.9 "/>
	<polyline class="st4" points="57.6,24.8 37.2,15.6 12.1,22.8 "/>
	<line class="st3" x1="18.1" y1="35.4" x2="22.9" y2="35.6"/>
	<line class="st3" x1="19.6" y1="36.9" x2="24.6" y2="37.1"/>
	<line class="st3" x1="21" y1="38.5" x2="26.2" y2="38.6"/>
	<line class="st3" x1="22.4" y1="39.9" x2="27.8" y2="40.2"/>
	<line class="st3" x1="23.9" y1="41.4" x2="29.3" y2="41.6"/>
	<line class="st3" x1="25.5" y1="42.9" x2="30.9" y2="43.1"/>
	<line class="st3" x1="26.9" y1="44.5" x2="32.4" y2="44.6"/>
	<line class="st3" x1="28.5" y1="45.9" x2="34" y2="46"/>
	<line class="st3" x1="30" y1="47.6" x2="35.9" y2="47.7"/>
	<line class="st3" x1="31.4" y1="49" x2="37" y2="49.2"/>
	<line class="st3" x1="32.8" y1="50.5" x2="38.8" y2="50.7"/>
	<line class="st3" x1="34.4" y1="52" x2="40.4" y2="52.1"/>
	<line class="st3" x1="19.4" y1="20.6" x2="19.4" y2="28.7"/>
	<line class="st3" x1="28.1" y1="18.2" x2="28.1" y2="27.4"/>
	<line class="st3" x1="45.1" y1="19" x2="45.1" y2="28.4"/>
	<line class="st3" x1="52.2" y1="22.4" x2="52.2" y2="30.5"/>
</svg>
