<?xml version="1.0" standalone="no"?>
<!DOCTYPE svg PUBLIC "-//W3C//DTD SVG 20010904//EN"
 "http://www.w3.org/TR/2001/REC-SVG-20010904/DTD/svg10.dtd">
<svg version="1.0" xmlns="http://www.w3.org/2000/svg"
 width="180.000000pt" height="180.000000pt" viewBox="0 0 180.000000 180.000000"
 preserveAspectRatio="xMidYMid meet">

<g transform="translate(0.000000,180.000000) scale(0.100000,-0.100000)"
fill="#000000" stroke="none">
<path d="M233 1791 c-78 -19 -160 -89 -205 -174 l-23 -42 0 -675 0 -675 23
-43 c33 -63 84 -114 144 -148 l53 -29 675 0 675 0 53 29 c60 34 111 85 144
148 l23 43 0 675 0 675 -29 53 c-34 60 -85 111 -148 144 l-43 23 -655 2 c-360
1 -669 -2 -687 -6z m500 -663 c-8 -75 -19 -90 -28 -39 -5 31 -3 48 9 66 9 14
18 25 21 25 2 0 1 -24 -2 -52z m368 -205 c5 -13 5 -32 1 -43 -7 -20 -10 -18
-40 19 -21 26 -28 41 -19 44 26 10 50 2 58 -20z"/>
</g>
</svg>
