<?xml version="1.0" encoding="utf-8"?>
<!-- Svg Vector Icons : http://www.onlinewebfonts.com/icon -->
<!DOCTYPE svg PUBLIC "-//W3C//DTD SVG 1.1//EN" "http://www.w3.org/Graphics/SVG/1.1/DTD/svg11.dtd">
<svg version="1.1" xmlns="http://www.w3.org/2000/svg" xmlns:xlink="http://www.w3.org/1999/xlink" x="0px" y="0px" viewBox="0 0 1000 1000" enable-background="new 0 0 1000 1000" xml:space="preserve">
<metadata> Svg Vector Icons : http://www.onlinewebfonts.com/icon </metadata>
<g><path d="M500,96.6C503.1,100.1,502.3,97.3,500,96.6L500,96.6z M38,562.4l415.8,185.1c36.7,17.2,52.6,17.2,92.4,0L962,562.4c20.5-9.5,28-54,28-78c-26.7,13.3-64.6,32.2-65.3,32.3L500,710.6L75.3,516.7c1.4,0.9-37.6-16.6-65.3-32.3C10,507.9,15.9,550.8,38,562.4z M500,904.6L75.3,710.6c1.4,0.9-37.6-16.6-65.3-32.3c0,23.4,5.9,66.4,28,78l415.8,185.1c36.7,17.2,52.6,17.2,92.4,0L962,756.3c20.5-9.5,28-54,28-78c-26.7,13.3-64.6,32.2-65.3,32.3L500,904.6z M38,368.5l415.8,185.1c36.7,17.2,52.6,17.2,92.4,0L962,368.5c30.6-14.1,31.6-74.2,0-91.4L546.2,59.7c-32.7-19.2-55.6-18.2-92.4,0L38,277.1C6.4,297.3,5.4,351.3,38,368.5z M500,96.6l424.7,226.2L500,500.1L75.3,322.8L500,96.6z"/></g>
</svg>